<?xml version="1.0" encoding="UTF-8" standalone="no"?>
<!-- Created with Inkscape (http://www.inkscape.org/) -->

<svg
   xmlns:dc="http://purl.org/dc/elements/1.1/"
   xmlns:cc="http://creativecommons.org/ns#"
   xmlns:rdf="http://www.w3.org/1999/02/22-rdf-syntax-ns#"
   xmlns:svg="http://www.w3.org/2000/svg"
   xmlns="http://www.w3.org/2000/svg"
   xmlns:sodipodi="http://sodipodi.sourceforge.net/DTD/sodipodi-0.dtd"
   xmlns:inkscape="http://www.inkscape.org/namespaces/inkscape"
   version="1.1"
   width="64.1875"
   height="64.1875"
   id="svg3799"
   inkscape:version="0.92.4 (f8dce91, 2019-08-02)"
   sodipodi:docname="parafoil.svg">
  <sodipodi:namedview
     pagecolor="#ffffff"
     bordercolor="#666666"
     borderopacity="1"
     objecttolerance="10"
     gridtolerance="10"
     guidetolerance="10"
     inkscape:pageopacity="0"
     inkscape:pageshadow="2"
     inkscape:window-width="1837"
     inkscape:window-height="1025"
     id="namedview3241"
     showgrid="false"
     inkscape:zoom="9.3008764"
     inkscape:cx="25.736833"
     inkscape:cy="25.933909"
     inkscape:window-x="83"
     inkscape:window-y="27"
     inkscape:window-maximized="1"
     inkscape:current-layer="svg3799" />
  <defs
     id="defs3801">
    <marker
       refX="0"
       refY="0"
       orient="auto"
       id="EmptyTriangleOutL"
       style="overflow:visible">
      <path
         d="m 5.77,0 -8.65,5 0,-10 8.65,5 z"
         transform="matrix(0.8,0,0,0.8,-4.8,0)"
         id="path4487"
         style="fill:#ffffff;fill-rule:evenodd;stroke:#000000;stroke-width:1pt" />
    </marker>
    <marker
       refX="0"
       refY="0"
       orient="auto"
       id="DotS"
       style="overflow:visible">
      <path
         d="m -2.5,-1 c 0,2.76 -2.24,5 -5,5 -2.76,0 -5,-2.24 -5,-5 0,-2.76 2.24,-5 5,-5 2.76,0 5,2.24 5,5 z"
         transform="matrix(0.2,0,0,0.2,1.48,0.2)"
         id="path4394"
         style="fill-rule:evenodd;stroke:#000000;stroke-width:1pt" />
    </marker>
    <marker
       refX="0"
       refY="0"
       orient="auto"
       id="DotL"
       style="overflow:visible">
      <path
         d="m -2.5,-1 c 0,2.76 -2.24,5 -5,5 -2.76,0 -5,-2.24 -5,-5 0,-2.76 2.24,-5 5,-5 2.76,0 5,2.24 5,5 z"
         transform="matrix(0.8,0,0,0.8,5.92,0.8)"
         id="path4388"
         style="fill-rule:evenodd;stroke:#000000;stroke-width:1pt" />
    </marker>
    <marker
       refX="0"
       refY="0"
       orient="auto"
       id="Tail"
       style="overflow:visible">
      <g
         transform="scale(-1.2,-1.2)"
         id="g4363">
        <path
           d="M -3.8048674,-3.9585227 0.54352094,0"
           id="path4365"
           style="fill:none;stroke:#000000;stroke-width:0.80000001;stroke-linecap:round" />
        <path
           d="M -1.2866832,-3.9585227 3.0617053,0"
           id="path4367"
           style="fill:none;stroke:#000000;stroke-width:0.80000001;stroke-linecap:round" />
        <path
           d="M 1.3053582,-3.9585227 5.6537466,0"
           id="path4369"
           style="fill:none;stroke:#000000;stroke-width:0.80000001;stroke-linecap:round" />
        <path
           d="M -3.8048674,4.1775838 0.54352094,0.21974226"
           id="path4371"
           style="fill:none;stroke:#000000;stroke-width:0.80000001;stroke-linecap:round" />
        <path
           d="M -1.2866832,4.1775838 3.0617053,0.21974226"
           id="path4373"
           style="fill:none;stroke:#000000;stroke-width:0.80000001;stroke-linecap:round" />
        <path
           d="M 1.3053582,4.1775838 5.6537466,0.21974226"
           id="path4375"
           style="fill:none;stroke:#000000;stroke-width:0.80000001;stroke-linecap:round" />
      </g>
    </marker>
    <marker
       refX="0"
       refY="0"
       orient="auto"
       id="Arrow1Sstart"
       style="overflow:visible">
      <path
         d="M 0,0 5,-5 -12.5,0 5,5 0,0 z"
         transform="matrix(0.2,0,0,0.2,1.2,0)"
         id="path4339"
         style="fill-rule:evenodd;stroke:#000000;stroke-width:1pt" />
    </marker>
    <marker
       refX="0"
       refY="0"
       orient="auto"
       id="Arrow1Lstart"
       style="overflow:visible">
      <path
         d="M 0,0 5,-5 -12.5,0 5,5 0,0 z"
         transform="matrix(0.8,0,0,0.8,10,0)"
         id="path4327"
         style="fill-rule:evenodd;stroke:#000000;stroke-width:1pt" />
    </marker>
  </defs>
  <metadata
     id="metadata3804">
    <rdf:RDF>
      <cc:Work
         rdf:about="">
        <dc:format>image/svg+xml</dc:format>
        <dc:type
           rdf:resource="http://purl.org/dc/dcmitype/StillImage" />
        <dc:title></dc:title>
      </cc:Work>
    </rdf:RDF>
  </metadata>
  <path
     style="fill:none;stroke:#000000;stroke-width:3.77952756;stroke-linecap:butt;stroke-linejoin:miter;stroke-opacity:1"
     d="M 5.6854167,36.367046 C 4.1351418,13.7163 45.146321,19.999951 59.61948,38.438733 42.733292,35.735067 6.8589334,53.513053 5.6854167,36.367046 Z"
     id="path940"
     inkscape:connector-curvature="0"
     sodipodi:nodetypes="scs" />
  <path
     style="fill:none;stroke:#000000;stroke-width:1px;stroke-linecap:butt;stroke-linejoin:miter;stroke-opacity:1"
     d="M 5.6983877,35.050461 6.5585217,14.622278 33.760259,8.4938236 61.929648,39.458648"
     id="path838"
     inkscape:connector-curvature="0" />
  <path
     style="fill:none;stroke:#000000;stroke-width:1px;stroke-linecap:butt;stroke-linejoin:miter;stroke-opacity:1"
     d="M 5.6854167,36.367046 5.4833542,57.413945 37.200795,44.404418 61.929648,39.458648"
     id="path840"
     inkscape:connector-curvature="0"
     sodipodi:nodetypes="cccc" />
  <circle
     id="path848"
     style="fill:#ff4141;stroke:none"
     cx="6.5585217"
     cy="14.622278"
     r="4.510469" />
  <circle
     id="path848-3"
     style="fill:#ff4141;stroke:none"
     cx="32.900124"
     cy="9.0314074"
     r="4.510469" />
  <circle
     id="path848-6"
     style="fill:#ff4141;stroke:none"
     cx="5.5908713"
     cy="57.091393"
     r="4.510469" />
  <circle
     id="path848-7"
     style="fill:#ff4141;stroke:none"
     cx="36.448177"
     cy="44.942001"
     r="4.510469" />
</svg>
